<?xml version="1.0" encoding="UTF-8"?>
<svg width="423px" height="391px" viewBox="0 0 423 391" version="1.1" xmlns="http://www.w3.org/2000/svg" xmlns:xlink="http://www.w3.org/1999/xlink">
    <!-- Generator: sketchtool 54.1 (76490) - https://sketchapp.com -->
    <title>946BCF87-B8AE-4F47-A6E4-9F62A3B6BF7F</title>
    <desc>Created with sketchtool.</desc>
    <defs>
        <polygon id="path-1" points="1 1 2 1 2 2 1 2"></polygon>
        <polygon id="path-3" points="0.0848090917 0.652534562 138.139829 0.652534562 138.139829 127.249824 0.0848090917 127.249824"></polygon>
    </defs>
    <g id="Page-1" stroke="none" stroke-width="1" fill="none" fill-rule="evenodd">
        <g id="Spaceapps" transform="translate(-156.000000, -760.000000)">
            <g id="Section-NASA" transform="translate(155.000000, 760.000000)">
                <g id="img-astronauta1">
                    <path d="M183.972066,134.172525 C181.243059,132.509005 177.794234,133.113588 175.920477,135.442151 C175.901925,135.438486 175.851834,135.429326 175.851834,135.429326 C172.974411,140.031488 150.893763,146.231216 134.120856,133 C134.120856,133 119.039896,136.66231 125.696371,150.655668 C132.354701,164.649026 160.585353,160.752211 162.297707,159.695106 C167.006217,160.241063 181.756951,149.734136 185.18908,143.58021 C185.541569,143.250437 185.86623,142.885855 186.133379,142.460814 C187.875417,139.672402 186.908855,135.962459 183.972066,134.172525" id="Fill-1" fill="#FFFFFF"></path>
                    <path d="M139.37784,129.256201 C146.720187,130.942819 150.711083,140.475797 148.294353,150.551362 C145.875742,160.626927 137.963536,167.428578 130.621189,165.743799 C123.278843,164.05902 119.287947,154.524203 121.706558,144.448638 C124.123288,134.373073 132.035494,127.571422 139.37784,129.256201" id="Fill-3" fill="#ECECEC"></path>
                    <path d="M139.37784,129.256201 C146.720187,130.942819 150.711083,140.475797 148.294353,150.551362 C145.875742,160.626927 137.963536,167.428578 130.621189,165.743799 C123.278843,164.05902 119.287947,154.524203 121.706558,144.448638 C124.123288,134.373073 132.035494,127.571422 139.37784,129.256201 Z" id="Stroke-5" stroke="#ECECEC" stroke-width="0.411" stroke-linecap="round" stroke-linejoin="round"></path>
                    <path d="M160.380663,225.798498 C160.380663,225.798498 141.12786,190.182001 138.921039,179.901939 C138.005383,175.642582 137.951739,169.010761 138.199613,162.702038 C141.551466,156.577943 143.458618,149.552865 143.458618,142.082835 C143.458618,118.289885 124.131822,99 100.293344,99 C80.6002867,99 63.9982584,112.169482 58.8169458,130.161435 L58.7226055,130.211285 C58.7226055,130.211285 50.8757193,155.178466 55.4114489,189.325329 C59.9490284,223.474038 96.7380131,279.283249 111.575324,286.995141 C126.412636,294.705187 123.347504,277.69176 123.347504,277.69176 C123.347504,273.343781 98.2086106,255.29644 106.303371,233.264836 C114.396282,211.233232 129.35568,225.676644 129.35568,225.676644 C133.771173,228.800542 154.250399,256.642374 154.250399,256.642374 C154.250399,256.642374 162.465397,264.841683 170.068108,258.477572 C177.67082,252.113461 160.380663,225.798498 160.380663,225.798498" id="Fill-7" fill="#A2BE3A"></path>
                    <g id="Group-11" transform="translate(0.000000, 389.000000)">
                        <mask id="mask-2" fill="white">
                            <use xlink:href="#path-1"></use>
                        </mask>
                        <g id="Clip-10"></g>
                        <path d="" id="Fill-9" fill="#ECECEC" mask="url(#mask-2)"></path>
                    </g>
                    <path d="M107.493587,255.833806 C104.90629,257.814454 101.776734,259.5738 98.6453272,261.07865 C90.5873217,248.427584 85.8328394,234.863649 83.5860736,227.296984 C86.3899041,226.684717 88.4923144,224.202452 88.4923144,221.224103 C88.4923144,217.786554 85.6958867,215 82.2461572,215 C78.7964277,215 76,217.786554 76,221.224103 C76,224.661652 78.7964277,227.448207 82.2461572,227.448207 C82.4090199,227.448207 82.5607784,227.413167 82.7180891,227.402102 C84.9630042,234.9743 89.7396951,248.656262 97.8606248,261.443798 C95.0845549,262.740255 92.3380965,263.844918 90.0006456,264.70615 C98.110471,275.916912 105.842751,284.342965 110.958122,286.996738 C125.804544,294.699873 122.737912,277.703922 122.737912,277.703922 C122.737912,274.985602 112.879163,266.900723 107.493587,255.833806" id="Fill-12" fill="#ECECEC"></path>
                    <path d="M161.04277,227 C152.849986,235.368638 145.125309,237.517739 140,237.830002 C146.871071,246.553149 154.373627,256.76781 154.373627,256.76781 C154.373627,256.76781 162.527861,264.923374 170.072638,258.591791 C176.853759,252.899427 163.776145,231.33494 161.04277,227" id="Fill-14" fill="#ECECEC"></path>
                    <path d="M72.0711901,117.61785 C79.9952894,120.365381 83.2533652,131.49617 79.3495946,142.475333 C75.4439739,153.456322 65.8529091,160.12968 57.9288099,157.38215 C50.0047106,154.632792 46.7466348,143.50383 50.6504054,132.524667 C54.5560261,121.543678 64.1452408,114.87032 72.0711901,117.61785" id="Fill-16" fill="#ECECEC"></path>
                    <path d="M64.2467619,124.472865 C40.36167,127.606336 22.9981925,107.104112 22.9981925,100.473116 C22.9981925,100.473116 22.9450372,100.452684 22.9248748,100.443397 C22.525293,96.8232814 19.5980816,94 16.0036786,94 C12.136167,94 9,97.2542033 9,101.26995 C9,101.882899 9.09531308,102.467987 9.23278387,103.038215 C8.83870094,111.638079 16.6415431,131.973135 21.4585197,134.398928 C22.46114,136.590686 47.0629129,158.602994 61.7557912,148.242294 C76.4468365,137.881595 64.2467619,124.472865 64.2467619,124.472865" id="Fill-18" fill="#FFFFFF"></path>
                    <path d="M155.905841,128.786837 C155.95569,128.493222 156,128.195913 156,127.887525 C156,124.827647 153.40416,122.347612 150.202746,122.347612 C147.702912,122.347612 145.590791,123.867395 144.776591,125.985488 C143.596832,126.131373 142.30445,126.323423 140.877292,126.574566 C85.7018393,136.260179 77.1388897,98.6534073 77.2330489,98.1732816 C77.9955539,94.3064227 53.2002944,99.9626733 61.8241706,115.662785 C73.6439212,137.179805 144.167326,151.398913 154.700234,131.431222 C155.006713,131.082208 155.820913,129.953912 155.905841,128.786837" id="Fill-20" fill="#F9F9F9"></path>
                    <g id="Group-24" transform="translate(46.000000, 0.000000)">
                        <mask id="mask-4" fill="white">
                            <use xlink:href="#path-3"></use>
                        </mask>
                        <g id="Clip-23"></g>
                        <path d="M89.7474813,4.90562212 C126.117295,17.478894 146.361255,54.1074654 134.963255,86.7176037 C123.568961,119.325899 84.8454147,135.569217 48.4774547,122.995945 C12.1076413,110.424516 -8.13446533,73.7959447 3.259828,41.1858065 C14.657828,8.5756682 53.377668,-7.66764977 89.7474813,4.90562212" id="Fill-22" fill="#FFFFFF" mask="url(#mask-4)"></path>
                    </g>
                    <path d="M141.132858,15.9649736 C174.852121,27.6845348 193.622184,61.8239658 183.055252,92.2187505 C172.488319,122.613535 136.588079,137.75461 102.868816,126.035049 C69.1495531,114.315487 50.3776429,80.17421 60.9445755,49.7794254 C71.5115082,19.3864872 107.413595,4.2454123 141.132858,15.9649736" id="Fill-25" fill="#009CDD"></path>
                    <path d="M111,129.727859 C111,129.727859 107.802887,128.784683 103,127 C106.873703,129.436929 109.904826,130.559981 111,129.727859" id="Fill-27" fill="#FFFFFF"></path>
                    <path d="M180.439579,45.602938 C170.425389,13.0326428 132.837552,-3.04067299 94.7492829,13.7153147 C76.4936527,22.0387318 69.5208366,30.3861997 67.2310347,36.6505007 C63.0059809,39.1906322 59.4198557,43.0868572 57.2094582,48.0746173 C54.5854191,53.9985074 54.3841382,60.3349607 56.1531948,65.8629381 C55.414549,74.4934651 56.8586015,94.6646624 67.9401347,105.696566 C78.048502,115.760889 92.7715589,123.090825 101.864288,127 C90.3432609,118.621081 71.5077937,97.0697395 72.5548241,80.6264119 C82.655805,82.4894217 93.3735552,76.7449873 98.03441,66.2310999 C102.041563,57.1843096 100.427622,47.1717883 94.7086574,40.5652263 C149.357365,-3.9324016 186.021894,64.7103511 180.439579,45.602938" id="Fill-29" fill="#FFFFFF"></path>
                    <path d="M7.08075582,117.472451 C8.47609362,118.06918 9.12508794,119.686297 8.52657095,121.081669 C7.92985673,122.477042 6.31458197,123.126052 4.91924418,122.52752 L4.91744142,122.52752 C3.52210362,121.930791 2.87491206,120.315477 3.47162629,118.918301 C4.07014327,117.522929 5.68541803,116.873919 7.08075582,117.472451 M7.96591197,115.404631 C5.42762306,114.317539 2.49092375,115.496575 1.40385826,118.034926 C0.318595536,120.571475 1.49579913,123.51005 4.03408803,124.59534 C6.57237694,125.682432 9.50907625,124.503396 10.594339,121.966847 L10.5961417,121.966847 C11.6814045,119.428496 10.5042009,116.489921 7.96591197,115.404631" id="Fill-31" fill="#CCCCCC"></path>
                    <path d="M9.94158215,122 C9.94158215,122 22.7276717,91.1667135 23.405666,90.1967737 C24.0836604,89.2268339 23.8146735,87.7561 27.7260378,85.4773931 C31.637402,83.1986863 35.9153991,82.1617257 36.6689309,80.5923222 C36.9673958,80.1250384 40.412639,75.8934202 34.8707719,68.176721 C33.2144759,65.8700888 33.851938,71.8647261 33.6898089,74.9737461 C33.5995325,76.7330418 30.5135527,77.909629 29.3012693,78.2689349 C26.9080228,78.9800999 24.8611431,74.3147083 24.8611431,74.3147083 C24.8611431,74.3147083 26.8730177,66.6129026 28.2511149,65.0434991 C29.6310546,63.4740956 25.9536721,64.1405801 25.9536721,64.1405801 C25.9536721,64.1405801 21.2261352,67.5102365 19.201364,72.4995619 C17.1784351,77.4888873 17.7108818,85.298671 17.7108818,85.298671 C17.7108818,85.298671 18.3059692,86.0079744 16.0859061,90.1911886 C13.8695278,94.3744029 0.797870011,116.602965 1.00237375,116.962271 C1.10370443,117.140993 4.96163979,114.223727 7.14854012,115.426378 C9.37965747,116.655092 9.94158215,122 9.94158215,122" id="Fill-33" fill="#CCCCCC"></path>
                    <path d="" id="Stroke-35" stroke="#FFE680" stroke-width="1.061"></path>
                    <path d="" id="Stroke-37" stroke="#FFE680" stroke-width="1.061"></path>
                    <path d="M207,321.067722 C207,321.067722 204.173614,313.401993 201.347228,311.980349 C198.520842,310.562421 187.498306,307.154192 182.128542,310.278092 C176.756929,313.401993 169.692813,330.437566 167.430595,342.080182 C165.170226,353.722799 171.953182,367.067672 184.388911,365.932215 C196.82464,364.796758 198.520842,365.365415 201.913245,359.827507 C205.303798,354.289598 207,321.067722 207,321.067722" id="Fill-39" fill="#4D4D4D"></path>
                    <path d="M187,289.992533 C187,289.992533 187,284.535452 194.904103,281.063437 C202.806361,277.591422 297.155825,227 297.155825,227 C297.155825,227 392.244801,239.399259 391.999526,245.598889 C391.752408,251.80037 326.053933,320 326.053933,320 C284.619173,302.78251 240.344395,289.731438 187,289.992533" id="Fill-41" fill="#F2F2F2"></path>
                    <path d="M374.950044,326.299296 C374.90432,326.364798 374.776968,326.53021 374.577078,326.761103 C374.228239,327.164046 373.822798,327.569541 373.373195,327.943874 C371.772364,329.276702 370.146648,329.813654 368.509205,329.314138 C365.920447,328.524415 363.058786,325.278207 360.194042,318.796691 C359.571672,317.388573 358.957743,315.843016 358.353464,314.156669 L353.646536,315.843331 C354.290281,317.639816 354.948445,319.296733 355.620822,320.817993 C361.900952,335.026858 369.789875,337.433442 376.572421,331.786394 C377.727692,330.824532 378.559998,329.863135 379.049956,329.161239 L374.950044,326.299296 Z" id="Stroke-43" fill="#B3B3B3" fill-rule="nonzero"></path>
                    <path d="M321.389561,356 L398,289.346654 L397.296811,257.424837 C396.970265,256.013498 396.695669,245.950763 392.201942,244.444965 C386.945654,242.891011 384.459447,245.941503 384.294318,245.496987 C384.294318,245.496987 323.499126,297.766531 322.092749,301.626413 C320.688228,305.484443 321.038894,355.82775 321.038894,355.82775 L321.389561,356 Z" id="Fill-45" fill="#F9F9F9"></path>
                    <path d="M188.898785,352.635838 C188.898785,352.635838 193.174444,364.970497 199.444291,361.326791 C205.716003,357.681251 208.566442,340.301179 208.566442,340.301179 C208.566442,340.301179 212.271267,311.705614 198.020937,319.275568 C183.768741,326.843687 188.898785,352.635838 188.898785,352.635838" id="Fill-47" fill="#333333"></path>
                    <path d="M322.961219,301.998512 C322.961219,301.998512 322.260086,301.302605 316.30323,301.998512 C310.346373,302.694419 190.51551,286 190.51551,286 L190.500711,286.495765 C189.005947,286.376414 185.14509,286.528816 185.004493,291.293666 C184.865746,296.025465 187.977371,321.460033 189.226091,331.432249 L189.113244,335.385514 L313.500547,355.555795 C313.500547,355.555795 320.508178,356.249865 321.910445,355.90283 C323.310861,355.553959 322.961219,301.998512 322.961219,301.998512" id="Fill-49" fill="#E6E6E6"></path>
                    <path d="M396,325.585636 C396,325.585636 393.527437,318.860633 391.054874,317.614573 C388.580464,316.368514 378.935806,313.38169 374.238121,316.121162 C369.538589,318.860633 363.356258,333.80405 361.37673,344.01802 C359.399049,354.22827 365.333939,365.935652 376.215802,364.940664 C387.097665,363.943816 388.580464,364.44224 391.549756,359.584467 C394.517201,354.726694 396,325.585636 396,325.585636" id="Fill-51" fill="#4D4D4D"></path>
                    <path d="M379.81354,352.699989 C379.81354,352.699989 383.68199,363.633226 389.356614,360.403162 C395.029312,357.173099 397.607637,341.766752 397.607637,341.766752 C397.607637,341.766752 400.960036,316.421605 388.066489,323.130342 C375.171016,329.840934 379.81354,352.699989 379.81354,352.699989" id="Fill-53" fill="#666666"></path>
                    <path d="M361.123521,281.83062 C361.210536,281.825485 361.300116,281.820222 361.392249,281.814834 C362.668669,281.74018 364.167613,281.65695 365.87784,281.567283 C370.767409,281.310925 376.367312,281.054503 382.587602,280.815139 C384.753191,280.731804 386.960564,280.651916 389.207516,280.575892 C390.188731,288.250929 393.134398,294.005819 397.475924,298.028255 C399.400749,299.81161 401.467587,301.125921 403.543686,302.043914 C404.821138,302.608769 405.850174,302.921382 406.509693,303.05329 L407.490307,298.150393 C407.445705,298.141473 407.295163,298.104072 407.054228,298.030878 C406.613648,297.897033 406.112386,297.712739 405.565698,297.471009 C403.973834,296.767131 402.37271,295.748969 400.874103,294.360506 C397.03005,290.798981 394.502478,285.452696 393.957251,277.821829 L393.785913,275.423833 L391.383052,275.501298 C388.315072,275.600206 385.317386,275.706393 382.395338,275.818837 C376.15128,276.059115 370.528256,276.316596 365.616052,276.574141 C363.895658,276.664341 362.38667,276.748129 361.100314,276.823364 C360.649466,276.849732 360.258488,276.873159 359.928785,276.893377 C359.730103,276.90556 359.596591,276.91393 359.526388,276.918424 L358.246024,277.000413 L332.518083,318.169307 L332.474579,318.791122 C332.463282,318.95259 332.444092,319.252501 332.419661,319.677832 C332.379254,320.381281 332.338921,321.183971 332.30132,322.072909 C332.062166,327.726797 332.04486,333.715609 332.395754,339.34844 C332.859656,346.795371 333.91237,352.671741 335.773671,356.542046 C338.455243,362.117984 343.155147,363.648345 348.470576,359.781987 L345.529424,355.738521 C342.878191,357.666985 341.674314,357.274984 340.279671,354.375027 C338.771974,351.239991 337.812624,345.88479 337.38608,339.037571 C337.047614,333.604239 337.064449,327.778524 337.296853,322.284215 C337.333363,321.421089 337.372435,320.643478 337.411432,319.964565 C337.415704,319.890189 337.419796,319.820044 337.423689,319.754211 L361.123521,281.83062 Z" id="Stroke-55" fill="#B3B3B3" fill-rule="nonzero"></path>
                    <path d="M423,292.389619 C423,292.389619 420.290302,286.255655 418.309999,285.256033 C416.331518,284.258251 411.116353,283.251265 407.053631,284.797642 C401.482886,286.918388 396.865824,299.007746 395.299452,307.172251 C393.723961,315.36437 398.46502,324.75125 407.170334,323.952288 C415.877471,323.153326 417.064559,323.552807 419.438735,319.657409 C421.812912,315.76201 423,292.389619 423,292.389619" id="Fill-57" fill="#4D4D4D"></path>
                    <path d="M410.599329,314.40234 C410.599329,314.40234 413.448656,323.093616 417.630705,320.525367 C421.811002,317.958938 423.711138,305.712885 423.711138,305.712885 C423.711138,305.712885 426.180438,285.565507 416.679762,290.898583 C407.179085,296.231659 410.599329,314.40234 410.599329,314.40234" id="Fill-59" fill="#666666"></path>
                    <path d="M367,346.068504 C367,346.068504 364.173614,338.402908 361.347228,336.981289 C358.520842,335.561528 347.498306,332.155216 342.128542,335.277204 C336.756929,338.402908 329.692813,355.438185 327.430595,367.080599 C325.170226,378.723012 331.953182,392.067653 344.388911,390.932216 C356.82649,389.796778 358.520842,390.363568 361.913245,384.827614 C365.303798,379.289802 367,346.068504 367,346.068504" id="Fill-61" fill="#4D4D4D"></path>
                    <path d="M348.898766,377.635838 C348.898766,377.635838 353.174338,389.970497 359.445921,386.326791 C365.71564,382.681251 368.56602,365.301179 368.56602,365.301179 C368.56602,365.301179 372.272634,336.705614 358.020731,344.275568 C343.768827,351.845522 348.898766,377.635838 348.898766,377.635838" id="Fill-63" fill="#808080"></path>
                    <polygon id="Fill-65" fill="#009CDD" opacity="0.85" points="298 202 261.714179 266 204 264.301339 246.286057 205.964764"></polygon>
                    <path d="M303,227.455777 C303,225.546731 301.463069,224 299.56612,224 L270.603838,224 C268.706889,224 267.169958,225.546731 267.169958,227.455777 L267.169958,268.400936 C267.169958,268.544391 267.195543,268.684167 267.21199,268.823942 C267.08772,269.246949 267,269.677311 267,270.11687 C267,275.023742 275.057465,279 284.999086,279 C294.93888,279 302.998172,275.023742 302.998172,270.11687 C302.998172,269.804213 302.96345,269.497074 302.899487,269.193613 C302.961622,268.93797 303,268.674971 303,268.400936 L303,227.455777 Z" id="Fill-67" fill="#CCCCCC"></path>
                    <path d="M285,217 C294.940299,217 303,221.030435 303,226 C303,230.969565 294.940299,235 285,235 C275.059701,235 267,230.969565 267,226 C267,221.030435 275.059701,217 285,217" id="Fill-69" fill="#ECECEC"></path>
                    <path d="M279.397178,157 L290.602822,157 C292.479802,157 294,158.424591 294,160.183525 L294,165.818292 C294,167.575409 292.479802,169 290.602822,169 L279.397178,169 C277.520198,169 276,167.575409 276,165.818292 L276,160.183525 C276,158.424591 277.520198,157 279.397178,157" id="Fill-71" fill="#B3B3B3"></path>
                    <path d="M298,154.596582 C298,149.848436 291.50817,146 283.5,146 C275.49183,146 269,149.848436 269,154.596582 C269,154.931312 269.040096,155.258304 269.103884,155.58336 C269.040096,155.869719 269,156.158014 269,156.450177 C269,160.6198 275.49183,164 283.5,164 C291.50817,164 298,160.6198 298,156.450177 C298,156.158014 297.961727,155.869719 297.897939,155.58336 C297.961727,155.258304 298,154.931312 298,154.596582" id="Fill-73" fill="#E6E6E6"></path>
                    <path d="M240.168926,116 L324.832913,116 C326.582806,116 328,117.429067 328,119.195476 L328,151.804524 C328,153.569079 326.582806,155 324.832913,155 L240.168926,155 C238.419032,155 237,153.569079 237,151.804524 L237,119.195476 C237,117.429067 238.419032,116 240.168926,116" id="Fill-75" fill="#FFFFFF"></path>
                    <path d="M282.235457,165 L285.764543,165 C287.55217,165 289,166.450425 289,168.241256 L289,225.758744 C289,227.549575 287.55217,229 285.764543,229 L282.235457,229 C280.449677,229 279,227.549575 279,225.758744 L279,168.241256 C279,166.450425 280.449677,165 282.235457,165" id="Fill-77" fill="#B3B3B3"></path>
                    <path d="M303.5,121 C310.957177,121 317,127.268516 317,135 C317,142.731484 310.957177,149 303.5,149 C296.04464,149 290,142.731484 290,135 C290,127.268516 296.04464,121 303.5,121" id="Fill-79" fill="#CCCCCC"></path>
                    <path d="M304,126 C308.971018,126 313,130.028982 313,135 C313,139.969141 308.971018,144 304,144 C299.030859,144 295,139.969141 295,135 C295,130.028982 299.030859,126 304,126" id="Fill-81" fill="#009CDD"></path>
                    <polygon id="Fill-83" fill="#009CDD" opacity="0.85" points="340.226103 207 298 274.079741 364.191174 293 399 220.187297"></polygon>
                    <path d="M286,174 L286,174 C286.551661,174 287,174.446923 287,174.999114 L287,222.99904 C287,223.553077 286.551661,224 286,224 C285.448339,224 285,223.553077 285,222.99904 L285,174.999114 C285,174.446923 285.448339,174 286,174" id="Fill-85" fill="#E6E6E6"></path>
                    <path d="M298,136 C298.043609,139.328185 300.49445,142 303.501744,142 C306.507295,141.998069 308.956391,139.326255 309,136 L298,136 Z" id="Fill-87" fill="#FFFFFF"></path>
                    <path d="" id="Stroke-89" stroke="#FFE680" stroke-width="1.061"></path>
                    <path d="" id="Stroke-91" stroke="#FFE680" stroke-width="1.061"></path>
                </g>
            </g>
        </g>
    </g>
</svg>