<?xml version="1.0" encoding="UTF-8"?>
<svg width="362px" height="367px" viewBox="0 0 362 367" version="1.1" xmlns="http://www.w3.org/2000/svg" xmlns:xlink="http://www.w3.org/1999/xlink">
    <!-- Generator: sketchtool 54.1 (76490) - https://sketchapp.com -->
    <title>7DE15C67-A640-4CA7-B18F-A84062A2C53D</title>
    <desc>Created with sketchtool.</desc>
    <defs>
        <polygon id="path-1" points="0.524673684 0.397772535 166.76385 0.397772535 166.76385 185 0.524673684 185"></polygon>
        <path d="M75.1045279,34.1962328 C74.2043159,37.3153726 73.6446707,39.9053726 73.4136429,43.0523619 C71.710808,51.4151576 68.9763143,61.9522006 65.2938095,67.0566092 C58.661716,76.2469318 24.2445367,103.071932 24.2445367,103.071932 C24.2445367,103.071932 -4.20575021,121.563975 0.532312961,131.128276 C5.27037614,140.694566 16.9253344,136.151125 16.9253344,136.151125 C16.9253344,136.151125 49.1796148,117.529781 54.8875968,116.352147 C54.8875968,116.352147 75.895201,108.566233 74.3277963,133.799835 C72.7603916,159.033437 40.1535945,165.983867 38.2695223,170.272684 C38.2695223,170.272684 27.8752593,185.733115 45.8456435,184.537577 C63.8160277,183.338061 124.273634,144.165803 143.544546,112.43333 C162.817449,80.6988673 165.898485,52.6763404 165.898485,52.6763404 L165.828778,52.5868242 C168.515473,32.5948888 157.854333,12.4298888 138.438033,3.921878 C114.932938,-6.37645533 87.5202849,4.30580273 77.2096699,27.7809103 L75.1045279,34.1962328 Z" id="path-3"></path>
        <polygon id="path-5" points="1.125 0.9375 2.0625 0.9375 2.0625 1.875 1.125 1.875"></polygon>
        <polygon id="path-7" points="0.343392175 0.243656095 151.501495 0.243656095 151.501495 135.517031 0.343392175 135.517031"></polygon>
        <polygon id="path-9" points="0.126567592 0.620462339 142.358755 0.620462339 142.358755 139.650827 0.126567592 139.650827"></polygon>
    </defs>
    <g id="Page-1" stroke="none" stroke-width="1" fill="none" fill-rule="evenodd">
        <g id="Spaceapps" transform="translate(-803.000000, -8381.000000)">
            <g id="Zgloszenie" transform="translate(0.000000, 8061.000000)">
                <g id="img-astronauta2" transform="translate(802.000000, 320.000000)">
                    <path d="M249.579582,198.481075 C246.315044,181.888018 215.622366,178.609882 213.543106,179.283142 C208.741725,177.469748 190.446253,184.743362 185.202904,190.371897 C184.744864,190.630381 184.304905,190.92894 183.911151,191.311656 C181.3397,193.810333 181.365817,198.002179 183.973429,200.671175 C186.396218,203.153821 190.181072,203.416313 192.770604,201.438611 C192.788684,201.446626 192.836899,201.470671 192.836899,201.470671 C197.087829,197.340941 221.932465,196.561482 236.025222,214.999994 C236.025222,214.999994 252.844119,215.074133 249.579582,198.481075" id="Fill-1" fill="#FFFFFF"></path>
                    <path d="M247.141619,200.17363 C239.392616,198.730972 231.480497,206.437025 229.468075,217.386586 C227.457619,228.336147 232.109379,238.383305 239.858381,239.825964 C247.607384,241.270601 255.521468,233.562569 257.531925,222.613008 C259.542381,211.663446 254.890621,201.616289 247.141619,200.17363" id="Fill-3" fill="#ECECEC"></path>
                    <g id="Group-7" transform="translate(160.000000, 182.000000)">
                        <mask id="mask-2" fill="white">
                            <use xlink:href="#path-1"></use>
                        </mask>
                        <g id="Clip-6"></g>
                        <g id="Combined-Shape" mask="url(#mask-2)">
                            <g transform="translate(0.524674, 0.397773)">
                                <mask id="mask-4" fill="white">
                                    <use xlink:href="#path-3"></use>
                                </mask>
                                <use id="Mask" stroke="none" fill="#009CDD" fill-rule="evenodd" xlink:href="#path-3"></use>
                                <path d="M0.0184218185,131.408791 C-4.29837594,122.685044 18.394089,106.757797 23.0642261,103.602227 C27.6192756,115.645076 34.4518498,121.221328 39.4753263,123.799487 C28.7015037,129.545329 16.6354684,136.510598 16.6354684,136.510598 C16.6354684,136.510598 4.82181839,141.11575 0.0184218185,131.408791 Z M96.6777218,128.966215 C98.149217,125.553163 102.065991,123.999595 105.424069,125.497179 C108.782147,126.994763 110.308724,130.973657 108.837229,134.386709 C107.363767,137.79976 103.446993,139.355328 100.088915,137.857744 C99.931536,137.785764 99.7997309,137.685792 99.6502207,137.605814 C94.2206396,144.149996 83.7077116,155.660798 70.3226139,164.832249 C72.4688722,167.325557 75.6702132,170.612921 77.5764683,172.482402 C64.8759699,180.094287 51.0250678,186.186343 44.9089201,186.602227 C27.1585178,187.803894 37.5348966,168.11297 37.5348966,168.11297 C38.6995024,165.41172 53.3650091,163.732555 63.3487497,155.080959 C65.0209033,158.1721 67.3107701,161.277237 69.7147368,164.130444 C82.979833,155.064963 93.4199731,143.662132 98.8515215,137.123948 C96.3826359,135.300455 95.4009834,131.923393 96.6777218,128.966215 Z" id="Combined-Shape" stroke="none" fill="#ECECEC" fill-rule="evenodd" mask="url(#mask-4)"></path>
                            </g>
                        </g>
                    </g>
                    <g id="Group-10" transform="translate(0.000000, 366.000000)">
                        <mask id="mask-6" fill="white">
                            <use xlink:href="#path-5"></use>
                        </mask>
                        <g id="Clip-9"></g>
                        <path d="" id="Fill-8" fill="#ECECEC" mask="url(#mask-6)"></path>
                    </g>
                    <path d="M210,219 L210,275.671232 L246.585072,291.6575 C248.305205,292.409353 250.715773,291.882464 251.993473,290.477425 L284.235556,254.976503 C285.511271,253.573437 285.15415,251.836872 283.434017,251.086992 L210,219 Z" id="Fill-16" fill="#808080"></path>
                    <path d="M282.373807,249.127147 L206.184905,217.129681 L206.184905,217.074482 L194.923411,212.34317 C194.477174,212.155889 193.985119,212.045492 193.479119,212.011978 C191.957133,211.909467 190.301676,212.469339 189.305612,213.522055 L155.79405,248.985208 C154.467293,250.386859 154.841813,252.121673 156.628751,252.868826 L206.051433,273.631399 L206.051433,273.688569 L244.075163,289.658718 C245.864094,290.407842 248.370189,289.883455 249.696946,288.479832 L283.204524,253.014708 C284.531281,251.613057 284.160745,249.878243 282.373807,249.127147" id="Fill-18" fill="#E6E6E6"></path>
                    <path d="M322.878701,195.554027 C322.762324,196.071705 297.825445,229.622846 247.141059,196.025733 C228.996209,183.997212 230.828151,193.461328 231.261556,194.826479 C232.535689,212.363576 272.431083,225.863183 302.604947,226.027081 C302.368179,227.232332 302.181573,228.463566 302.085261,229.736775 C301.118124,242.432881 307.69947,253.280138 316.780924,253.965711 C325.864385,254.653284 334.010806,244.917337 334.977943,232.219231 C335.383258,226.884548 334.444212,221.887655 332.560101,217.822182 C343.864766,206.221395 323.761564,191.594488 322.878701,195.554027" id="Fill-20" fill="#F9F9F9"></path>
                    <path d="M233.680632,198.450938 C236.735387,199.833909 240.251817,198.514432 241.532967,195.502452 C242.812194,192.492457 241.373305,188.930861 238.31855,187.547891 C235.261871,186.166904 231.747364,187.486381 230.468138,190.496376 C229.186988,193.506371 230.625877,197.067967 233.680632,198.450938" id="Fill-22" fill="#F9F9F9"></path>
                    <g id="Group-26" transform="translate(211.000000, 80.000000)">
                        <mask id="mask-8" fill="white">
                            <use xlink:href="#path-7"></use>
                        </mask>
                        <g id="Clip-25"></g>
                        <path d="M70.9838838,0.465668784 C29.3325808,3.46537567 -2.21997475,36.0814577 0.507732323,73.3117069 C3.23543939,110.545942 39.2122273,138.294726 80.8635303,135.295019 C122.512823,132.293319 154.065379,99.6792301 151.337672,62.4469878 C148.609965,25.2147455 112.633177,-2.5340381 70.9838838,0.465668784" id="Fill-24" fill="#FFFFFF" mask="url(#mask-8)"></path>
                    </g>
                    <path d="M274.425119,90.2069584 C235.849261,93.0022827 206.625247,123.379737 209.152286,158.060914 C211.679325,192.740095 244.999022,218.588366 283.574881,215.793041 C322.150739,212.997717 351.374753,182.620263 348.847714,147.941081 C346.322676,113.259905 313.000978,87.411634 274.425119,90.2069584" id="Fill-27" fill="#009CDD"></path>
                    <path d="M295,215.088005 C289.551331,215.914005 286,216.160005 286,216.160005 C286.853612,217.504005 290.290875,216.986005 295,215.088005" id="Fill-29" fill="#FFFFFF"></path>
                    <path d="M358.985374,159.377459 L358.985374,159.377459 C358.985374,159.377459 357.43953,158.53598 355.10588,157.372232 C355.691277,154.330574 355.794466,151.121813 355.280507,147.847404 C354.71297,144.222877 353.46677,140.892768 351.720501,137.9645 C351.371247,135.453988 350.960478,133.773019 350.843398,133.784955 L348.827252,133.997811 C347.66638,132.684865 346.382476,131.51316 345.00729,130.480707 C342.300574,120.890231 329.765145,105.286065 308.268185,92.8608193 C268.419532,73.8748214 222.224781,96.755893 211.5527,131.34009 C205.393135,152.34524 251.474776,76.1724772 311.961146,136.128365 C308.405108,141.43585 306.75806,148.249245 307.863368,155.315283 C310.079939,169.457305 322.49035,179.25268 335.585378,177.189763 C336.331511,177.072393 337.059785,176.90927 337.776151,176.722274 C332.388517,193.136091 308.732534,208.799937 295.191017,214 C305.712283,212.478176 323.03209,208.974997 336.319605,201.343994 C356.905728,189.519521 362.598959,153.337907 358.985374,159.377459" id="Fill-31" fill="#FFFFFF"></path>
                    <path d="M203.124622,230.183397 L266.140579,257.048461 C267.083932,257.449432 267.280547,258.385031 266.581473,259.135106 L248.848429,278.184226 C248.149355,278.936296 246.816745,279.219569 245.875378,278.816603 L182.859421,251.953534 C181.916068,251.550568 181.719453,250.616964 182.418527,249.864894 L200.149585,230.815774 C200.848659,230.063704 202.181269,229.780431 203.124622,230.183397" id="Fill-33" fill="#A2BE3A"></path>
                    <path d="M246,294 C246,294 225.496055,249.450134 218.790738,235.852365 C218.106278,234.468477 218.132144,233.457407 217.523293,232.353133 C208.651184,216.234782 130,199 130,199 C130,199 143.888165,251.014354 159.328302,259.579064 C174.768439,268.143774 246,294 246,294" id="Fill-35" fill="#FF6600"></path>
                    <path d="M319.903815,219.081668 C309.817046,202.49137 276.083045,213.36898 274.156292,215.083982 C268.356251,215.362844 251.943244,231.927248 248.6555,240.544084 C248.275688,241.042052 247.931484,241.575874 247.668385,242.179411 C245.95132,246.123317 247.656516,250.688687 251.478371,252.375802 C255.031192,253.945397 259.131971,252.449501 261.076528,249.069295 C261.127961,249.071287 261.16159,249.073279 261.16159,249.073279 C263.998308,242.56185 289.932323,230.005092 312.196803,243.511973 C312.196803,243.511973 329.992562,235.669975 319.903815,219.081668" id="Fill-37" fill="#FFFFFF"></path>
                    <polygon id="Fill-39" fill="#CCCCCC" points="39.2716616 134.886965 29 195 174 178.093086 149.790924 122"></polygon>
                    <path d="M6.83241379,65.034169 C11.8512307,54.2428902 17.7852437,61.3717104 20.087995,80.9596246 C22.3887781,100.547539 20.1864031,125.174552 15.1675862,135.965831 C10.1487693,146.75711 4.21278817,139.62829 1.91200504,120.040375 C-0.388778095,100.452461 1.81359686,75.8254479 6.83241379,65.034169" id="Fill-41" fill="#999999"></path>
                    <path d="M10.8324138,65.0341102 C15.8512307,54.2428231 21.7852437,61.3716488 24.087995,80.9615589 C26.3887781,100.547507 24.1864031,125.17454 19.1675862,135.965827 C14.1487693,146.757114 8.21278817,139.628288 5.91200504,120.040359 C3.6112219,100.45243 5.81359686,75.8253974 10.8324138,65.0341102" id="Fill-43" fill="#FFFFFF"></path>
                    <path d="M15.8324138,65.033729 C20.8512307,54.2423877 26.7852437,61.37323 29.087995,80.9612575 C31.3887781,100.547304 29.1864031,125.17446 24.1675862,135.965802 C19.1487693,146.757143 13.2127882,139.628282 10.912005,120.040254 C8.6112219,100.452226 10.8135969,75.8250703 15.8324138,65.033729" id="Fill-45" fill="#F2F2F2"></path>
                    <path d="M20.8324138,64.0341102 C25.8512307,53.2428231 31.7852437,60.3716488 34.087995,79.9615589 C36.3887781,99.5475074 34.1864031,124.17454 29.1675862,134.965827 C24.1487693,145.757114 18.2127882,138.628288 15.912005,119.040359 C13.6112219,99.4524299 15.8135969,74.8253974 20.8324138,64.0341102" id="Fill-47" fill="#FFFFFF"></path>
                    <path d="M24.8324138,63.034169 C29.8512307,52.2428902 35.7852437,59.3717104 38.087995,78.9596246 C40.3887781,98.5475387 38.1864031,123.174552 33.1675862,133.965831 C28.1487693,144.75711 22.2147563,137.62829 19.912005,118.040375 C17.6112219,98.4524613 19.8135969,73.8254479 24.8324138,63.034169" id="Fill-49" fill="#999999"></path>
                    <polygon id="Fill-51" fill="#666666" points="32.8823162 96.3758246 32 101 163 86.0341013 158.706194 82"></polygon>
                    <path d="M125,80.8733327 C125,80.8733327 116.468294,25.163655 75.9522435,61.0475149 C35.5468381,96.8344609 30.9540803,133.505499 10,120.214448" id="Stroke-53" stroke="#FAFAFA" stroke-width="0.215"></path>
                    <polygon id="Fill-55" fill="#009CDD" points="107 110.441176 120.283424 109 121 114.558824 107.716576 116"></polygon>
                    <polygon id="Fill-57" fill="#009CDD" points="104 97.8562744 120.048818 96 122 112.143726 105.951182 114"></polygon>
                    <path d="M113.998626,100.429661 L117.033639,100.008969 C117.655395,99.924831 118.217434,100.441974 118.291202,101.168436 L118.991995,108.102666 C119.065763,108.827076 118.6214,109.485818 118.0014,109.572008 L114.966387,109.990648 C114.346388,110.076838 113.782592,109.557643 113.708824,108.831181 L113.008031,101.899003 C112.934263,101.172541 113.376869,100.515851 113.998626,100.429661" id="Fill-59" fill="#3AC5FF"></path>
                    <path d="M97.4675554,77.0452777 L123.110614,74.0115478 C124.020103,73.9043052 124.847099,74.5560106 124.956403,75.4675732 L127.988034,101.10888 C128.097337,102.022505 127.44564,102.847449 126.532026,102.954691 L100.89103,105.988421 C99.979478,106.095664 99.1524821,105.446021 99.0452408,104.534458 L96.0115477,78.8910888 C95.9043063,77.9795262 96.5560038,77.1525203 97.4675554,77.0452777" id="Fill-61" fill="#FF6600"></path>
                    <polygon id="Fill-63" fill="#009CDD" points="94 83.7077408 127.091428 80 129 95.2903291 95.9085724 99"></polygon>
                    <path d="M110.590119,77.0843028 C117.171138,76.3055373 123.137383,81.0093588 123.916098,87.5908053 C124.692861,94.1722519 119.989345,100.138884 113.408325,100.915697 C106.827305,101.694463 100.863012,96.9906412 100.084297,90.4091947 C99.3055824,83.8296999 104.009099,77.8611165 110.590119,77.0843028" id="Fill-65" fill="#ECECEC"></path>
                    <path d="M99.3245178,79.0106952 C100.147899,78.9124783 100.893149,79.50178 100.98931,80.3235954 C101.087475,81.1474152 100.498487,81.8930623 99.6771093,81.9892748 C98.8537281,82.0874918 98.108478,81.5001945 98.0103133,80.6763747 C97.914152,79.8525549 98.5011367,79.1069078 99.3245178,79.0106952" id="Fill-67" fill="#F9F9F9"></path>
                    <path d="M123.324684,99.0106895 C124.146164,98.9125249 124.893511,99.5015129 124.989685,100.322891 C125.085858,101.146272 124.4988,101.891522 123.677319,101.989687 C122.853835,102.085848 122.108492,101.498863 122.010315,100.675482 C121.914141,99.8541043 122.501199,99.1068508 123.324684,99.0106895" id="Fill-69" fill="#F9F9F9"></path>
                    <polygon id="Fill-71" fill="#94AD35" points="53.888 137.498956 46 178 151 165.536133 133.918 128"></polygon>
                    <polygon id="Fill-73" fill="#A2BE3A" points="46 177.469189 151.228326 165 152 171.530811 46.7716744 184"></polygon>
                    <path d="M11.4764148,43.019583 L11.4764148,43.019583 C13.0152137,42.8380003 14.4106835,43.9394689 14.5918357,45.4819239 L31.9804634,192.857219 C32.1616157,194.399674 31.0627579,195.79846 29.5239589,195.980042 C27.9851599,196.163621 26.5896902,195.060157 26.4065473,193.517701 L9.01991028,46.142406 C8.83676732,44.5999509 9.93761576,43.2031611 11.4764148,43.019583" id="Fill-75" fill="#CCCCCC"></path>
                    <g id="Group-79" transform="translate(11.000000, 0.000000)">
                        <mask id="mask-10" fill="white">
                            <use xlink:href="#path-9"></use>
                        </mask>
                        <g id="Clip-78"></g>
                        <path d="M127.167715,28.3766626 L124.563924,6.27933864 L140.266118,26.8378628 L127.167715,28.3766626 Z M21.4132569,40.8066565 L18.4777847,15.9068034 C18.4400486,15.5779149 18.3308125,15.2789253 18.1758958,15.0118279 L119.082257,2.42237293 C118.766465,2.87285058 118.591687,3.42498469 118.659215,4.01499081 L121.60859,29.0304532 L21.4132569,40.8066565 Z M2.13407639,43.0749908 L13.4390208,20.9736803 L15.8541319,41.460447 L2.13407639,43.0749908 Z M142.208535,26.967425 L124.228271,3.42498469 L124.220326,3.35522045 C124.115063,2.48017759 123.523201,1.80246785 122.758549,1.50347826 L122.303729,0.907492345 C122.146826,0.70218616 121.892604,0.59056338 121.63441,0.626442131 L15.8203681,13.8278291 C15.8005069,13.8298224 15.7806458,13.8318157 15.7587986,13.8377955 C15.6793542,13.8517483 15.6138125,13.8896203 15.5462847,13.9274923 L14.9345625,14.0012431 C13.6713958,14.1507379 12.7697014,15.2988579 12.9206458,16.5665738 L13.1311736,18.3644979 L0.207548611,43.6271249 C0.0844097222,43.8683099 0.102284722,44.1573331 0.257201389,44.3805787 C0.394243056,44.5799051 0.620659722,44.6975077 0.857006944,44.6975077 C0.8848125,44.6975077 0.914604167,44.6955144 0.942409722,44.6915279 L16.0249375,42.917523 L27.1829097,137.611513 C27.3318681,138.879228 28.4778542,139.78417 29.7390347,139.634675 L30.7281181,139.517073 C31.9892986,139.367578 32.8929792,138.219458 32.7440208,136.951742 L21.5840625,42.2657257 L121.779396,30.4875291 L132.923465,125.061923 C133.07441,126.329639 134.21841,127.234581 135.47959,127.085086 L136.468674,126.967483 C137.729854,126.817988 138.631549,125.669868 138.48259,124.402152 L127.338521,29.8337385 L141.713993,28.1434507 C141.974174,28.1135517 142.198604,27.9441243 142.301882,27.7009461 C142.403174,27.4577679 142.367424,27.178711 142.208535,26.967425 L142.208535,26.967425 Z" id="Fill-77" fill="#CCCCCC" mask="url(#mask-10)"></path>
                    </g>
                    <path d="M174.235249,176.226728 L174.181617,176.232722 C174.177644,176.166796 174.185589,176.10087 174.177644,176.032946 L156.826723,28.4848343 C156.645964,26.9405705 155.25352,25.8378104 153.718058,26.019606 C152.182596,26.2033993 151.086121,27.6018271 151.266881,29.1460909 L168.617801,176.694203 C168.625747,176.762126 168.647597,176.824057 168.661501,176.889983 L29,193.501306 L29.7647515,200 L175,182.723424 L174.235249,176.226728 Z" id="Fill-80" fill="#ECECEC"></path>
                    <path d="M79,144 C79,144 81.9002757,134.598437 100.867351,136.830365 C119.832403,139.062293 114.226013,120 114.226013,120" id="Stroke-82" stroke="#FFFFFF" stroke-width="0.316"></path>
                    <polygon id="Fill-84" fill="#009CDD" points="108 116.248705 121 115 115.078065 121"></polygon>
                </g>
            </g>
        </g>
    </g>
</svg>