<?xml version="1.0" encoding="UTF-8"?>
<svg width="700px" height="594px" viewBox="0 0 700 594" version="1.1" xmlns="http://www.w3.org/2000/svg" xmlns:xlink="http://www.w3.org/1999/xlink">
    <!-- Generator: sketchtool 54.1 (76490) - https://sketchapp.com -->
    <title>A36C7788-2166-4C57-99B5-3B08AB57D75D</title>
    <desc>Created with sketchtool.</desc>
    <defs>
        <linearGradient x1="53.5511306%" y1="1.28403465%" x2="34.0447433%" y2="100%" id="linearGradient-1">
            <stop stop-color="#00CBF0" offset="0%"></stop>
            <stop stop-color="#FFCC00" offset="45.9875399%"></stop>
            <stop stop-color="#FF7100" offset="71.4240888%"></stop>
            <stop stop-color="#FF0066" offset="100%"></stop>
        </linearGradient>
        <path d="M276.891754,17.7286006 C288.772189,15.8956263 307.080351,14.8935002 331.816239,14.7222222 C334.089796,16.9307767 392.718103,87.08956 390.802192,133.681012 C391,150.645299 379.285577,170.11402 352.540389,170.11402 C332.942566,170.11402 307.056378,161.169456 274.881823,143.280327 C252.433668,166.544795 272.27296,242.609583 273.184158,242.670348 C273.184158,242.670348 291.87118,308.002535 275.222016,316.762999 C258.572852,325.523463 256.457196,302.320922 255.070383,297.05027 C255.070383,297.05027 240.805668,250.947003 232.65443,245.162791 C232.65443,245.162791 217.257702,218.425976 202.313798,259.210965 C187.369894,299.995858 228.582628,328.391708 233.786638,341.460516 C233.786638,341.460516 238.79469,351.065244 231.097035,359.353983 C226.678759,364.111527 222.472898,364.111527 212.049972,358.680899 C191.596577,348.024051 148.554525,287.738019 124.564578,231.560402 C116.904506,227.979916 104.503347,227.668702 94.9014086,253.770351 C79.9302004,294.467581 119.935459,322.706908 126.431754,335.843116 C126.431754,335.843116 131.648902,346.754119 122.630292,353.370457 C113.7424,359.890896 108.356692,354.949615 104.655372,353.026485 C76.0596538,338.168737 9.15712841,235.68264 0.764122561,172.601832 C-7.6287863,109.521121 55.8854594,62.4931098 55.8854594,62.4931098 C94.7110167,41.5215199 137.665126,57.9795393 172.25349,62.6506685 C221.182417,35.5176656 237.077357,21.3658766 270.693572,0 L276.891754,17.7286006 Z" id="path-2"></path>
        <linearGradient x1="97.2475798%" y1="59.514456%" x2="0%" y2="33.794472%" id="linearGradient-4">
            <stop stop-color="#F28D07" offset="0%"></stop>
            <stop stop-color="#BEBC27" offset="32.3915165%"></stop>
            <stop stop-color="#A2BE3A" offset="50.9157066%"></stop>
            <stop stop-color="#049DD8" offset="100%"></stop>
        </linearGradient>
    </defs>
    <g id="Page-1" stroke="none" stroke-width="1" fill="none" fill-rule="evenodd">
        <g id="Spaceapps" transform="translate(-585.000000, -96.000000)">
            <g id="Billboard" transform="translate(0.000000, -127.000000)">
                <g id="img-unicorn" transform="translate(935.000000, 520.000000) scale(-1, 1) translate(-935.000000, -520.000000) translate(585.000000, 223.000000)">
                    <g id="Ovals" transform="translate(0.000000, 47.000000)" fill="#FFFFFF">
                        <circle id="Oval" opacity="0.2" cx="518" cy="147" r="7"></circle>
                        <circle id="Oval" opacity="0.3" cx="101" cy="25" r="7"></circle>
                        <circle id="Oval-Copy-4" opacity="0.3" cx="7" cy="417" r="7"></circle>
                        <circle id="Oval-Copy-4" opacity="0.2" cx="447" cy="357" r="7"></circle>
                        <circle id="Oval" opacity="0.2" cx="643" cy="12" r="12"></circle>
                        <circle id="Oval-Copy-5" opacity="0.2" cx="467" cy="535" r="12"></circle>
                        <circle id="Oval-Copy-5" opacity="0.1" cx="683" cy="244" r="17"></circle>
                        <circle id="Oval-Copy-5" opacity="0.2" cx="608" cy="308" r="7"></circle>
                        <circle id="Oval-Copy-5" opacity="0.2" cx="498" cy="424" r="9"></circle>
                    </g>
                    <g id="unicorn" transform="translate(31.574998, -0.000000)">
                        <path d="M156.436925,211.335027 C156.436925,211.335027 144.788192,178.910613 129.849294,175.854081 C114.910397,172.797549 110.416441,175.534188 110.416441,175.534188 C110.416441,175.534188 138.664244,180.332971 134.812227,186.731412 C130.960307,193.129853 119.243919,183.869629 114.910397,181.932533 C114.910397,181.932533 98.1882719,175.854081 81.8117101,175.854081 C65.4351484,175.854081 34.9821065,183.852084 24.7101252,211.685294 C14.438241,239.518407 45.0415217,309.275757 46.8589332,324.937394 C48.6763447,340.599031 35.9451108,364.976076 21.5001432,346.052173 C7.05517557,327.128269 17.3272539,325.89717 17.3272539,325.89717 C17.3272539,325.89717 -10.2368748,321.271138 4.16635675,358.529065 C18.5695883,395.786993 50.0689152,378.044282 50.0689152,378.044282 C50.0689152,378.044282 44.5274252,395.639947 35.9451108,395.639947 C27.3627964,395.639947 22.4631475,387.322051 22.4631475,387.322051 C22.4631475,387.322051 22.4631475,404.917716 39.1549957,404.277833 C55.8469411,403.638434 77.995749,390.201282 83.1316426,366.527165 C88.2676333,342.852952 88.2483996,255.940171 139.627248,239.671482 C173.879814,228.825689 183.72374,219.603591 169.159025,212.005187 L156.436925,211.335027 Z" id="ogon" fill="url(#linearGradient-1)" fill-rule="nonzero"></path>
                        <g id="korpus" transform="translate(100.139425, 148.354701)">
                            <mask id="mask-3" fill="white">
                                <use xlink:href="#path-2"></use>
                            </mask>
                            <use id="Mask" fill="#FFFFFF" fill-rule="nonzero" xlink:href="#path-2"></use>
                            <path d="M56.6239316,298.402433 C74.8611077,326.299374 93.3391621,348.116925 104.748885,354.130558 C131.980938,368.483162 127.489586,335.685565 127.489586,335.685565 C127.489586,329.9522 103.225472,312.545006 95.0015403,287.649573 C83.7862135,300.88315 68.3496934,303.39923 56.6239316,298.402433 Z" id="path1098" fill="#A2BE3A" fill-rule="nonzero" mask="url(#mask-3)"></path>
                            <path d="M169.871795,312.956528 C188.291373,340.853465 200.571615,353.81315 212.113431,359.792943 C220.241867,364.00427 230.410638,365.351979 234.091849,361.176633 C238.701392,355.948342 235.699892,344.242649 235.07025,343.613007 C235.07025,337.879643 210.574781,317.075015 202.268597,292.179487 C196.125854,311.648903 181.928865,318.210699 169.871795,312.956528 Z" id="path1103" fill="#A2BE3A" fill-rule="nonzero" mask="url(#mask-3)"></path>
                            <path d="M250.277778,283.055463 C252.984761,290.888109 253.712257,294.607638 253.712257,296.872595 C253.712257,299.137553 259.714731,328.818599 277.346876,316.704237 C284.694646,311.655869 282.751095,291.158223 280.499991,274.059829 C270.811543,282.41149 260.737472,285.410035 250.277778,283.055463 Z" id="path1105" fill="#A2BE3A" fill-rule="nonzero" mask="url(#mask-3)"></path>
                        </g>
                        <g id="pyszczek" transform="translate(270.011220, 103.055556)" fill-rule="nonzero">
                            <path d="M140.42735,146.089744 C128.543788,146.089744 118.910256,136.456212 118.910256,124.57265 C118.910256,112.689087 128.543788,103.055556 140.42735,103.055556 C152.310913,103.055556 161.944444,112.689087 161.944444,124.57265 C161.944444,136.456212 152.310913,146.089744 140.42735,146.089744 Z M126.837607,125.705128 C126.952001,133.241284 133.257031,139.29273 140.996824,139.294872 C148.734098,139.289291 155.035217,133.238834 155.149573,125.705128 L126.837607,125.705128 Z" id="oko" fill="#009CDD"></path>
                            <path d="M178.912823,81.105764 C125.705128,75.6714702 114.278596,82.2517904 95.5807255,91.8611252 C73.4031951,103.98786 60.715824,153.783991 106.96504,189.988774 C105.549995,197.394122 96.5358912,235.279807 96.5358912,253.675214 C58.7241044,242.580462 21.534236,215.672482 6.61681607,166.533527 C-2.64982305,140.442281 2.85055046,107.731454 2.85055046,107.731454 C2.85055046,107.731454 56.1622033,69.5882683 66.1204476,62.5006226 C76.078692,55.4129768 96.2588332,40.2962809 119.914446,40.781949 C162.711964,41.6606153 175.302494,66.1772847 178.912823,81.105764 Z" id="path1079" fill="#316BD5"></path>
                            <path d="M194.312361,172.62178 C192.721664,171.275241 190.30103,169.868216 190.25641,169.916925 C190.257811,169.913867 193.799039,169.042935 196.494361,170.840348 C198.362385,171.749917 199.56953,172.844394 200.336518,173.895582 C201.111934,174.789682 201.581197,175.956493 201.581197,177.232906 C201.581197,177.236248 201.581193,177.239589 201.581187,177.24293 C201.58124,177.264103 201.581073,177.284806 201.580697,177.305027 C201.542117,180.086308 199.275491,182.32906 196.485043,182.32906 C193.670515,182.32906 191.388889,180.047434 191.388889,177.232906 C191.388889,175.195503 192.584492,173.437348 194.312361,172.62178 Z" id="Combined-Shape" fill="#666666"></path>
                            <circle id="path1073" fill="#009CDD" opacity="0.602939" cx="130.235043" cy="129.102564" r="129.102564"></circle>
                        </g>
                        <g id="uszy" transform="translate(341.357374, 0.000000)" fill-rule="nonzero">
                            <path d="M80.3080246,126.837607 C80.3080246,126.837607 94.9016522,119.81946 92.6213767,80.7193436 C90.3411981,41.6190325 61.1538462,104.780991 61.1538462,104.780991 L80.3080246,126.837607 Z" id="path1101" fill="#FFFFFF"></path>
                            <path d="M76.9961894,82.6250713 C96.889616,100.338137 107.570692,112.226088 112.261739,111.654764 C124.381961,110.178611 121.011355,97.3859271 115.426642,93.4496795 C110.905338,89.5134319 126.887097,93.4093038 131.931244,105.063188 C136.103417,113.385276 147.30003,142.775852 106.384131,132.32004 C57.0753099,119.71951 91.2359304,138.372804 91.2359304,138.372804 C91.2359304,138.372804 99.6023208,142.16061 104.575629,140.192535 C109.549034,138.22446 59.8054144,166.075537 50.7730537,133.796193 C41.7407895,101.516946 29.4444444,87.6659618 29.4444444,87.6659618 C29.4444444,87.6659618 57.1028594,64.9119086 76.9961894,82.6250713 Z" id="path1702" fill="url(#linearGradient-4)"></path>
                            <path d="M54.3589744,84.2466229 L89.465812,0 L76.6996541,97.0112949 C76.6996541,97.0112949 60.7419568,100.840639 54.3589744,84.2466229 Z" id="path1714" fill="#FF6600"></path>
                            <path d="M16.1423073,133.632479 C16.1423073,133.632479 -2.62084704,124.589991 0.3109893,74.2109148 C3.24263265,23.8315495 40.7692308,105.213453 40.7692308,105.213453 L16.1423073,133.632479 Z" id="path1704" fill="#FFFFFF"></path>
                        </g>
                    </g>
                </g>
            </g>
        </g>
    </g>
</svg>