<?xml version="1.0" encoding="UTF-8" standalone="no"?>
<!-- Created with Inkscape (http://www.inkscape.org/) -->

<svg
   xmlns:dc="http://purl.org/dc/elements/1.1/"
   xmlns:cc="http://creativecommons.org/ns#"
   xmlns:rdf="http://www.w3.org/1999/02/22-rdf-syntax-ns#"
   xmlns:svg="http://www.w3.org/2000/svg"
   xmlns="http://www.w3.org/2000/svg"
   xmlns:sodipodi="http://sodipodi.sourceforge.net/DTD/sodipodi-0.dtd"
   xmlns:inkscape="http://www.inkscape.org/namespaces/inkscape"
   version="1.1"
   id="svg2"
   xml:space="preserve"
   width="755.90533"
   height="755.90533"
   viewBox="0 0 755.90533 755.90533"
   sodipodi:docname="rocketLOGOv2-Recovered.svg"
   inkscape:version="0.92.3 (2405546, 2018-03-11)"><metadata
     id="metadata8"><rdf:RDF><cc:Work
         rdf:about=""><dc:format>image/svg+xml</dc:format><dc:type
           rdf:resource="http://purl.org/dc/dcmitype/StillImage" /><dc:title></dc:title></cc:Work></rdf:RDF></metadata><defs
     id="defs6"><clipPath
       clipPathUnits="userSpaceOnUse"
       id="clipPath18"><path
         d="M 0,566.929 H 566.929 V 0 H 0 Z"
         id="path16"
         inkscape:connector-curvature="0" /></clipPath></defs><sodipodi:namedview
     pagecolor="#ffffff"
     bordercolor="#666666"
     borderopacity="1"
     objecttolerance="10"
     gridtolerance="10"
     guidetolerance="10"
     inkscape:pageopacity="0"
     inkscape:pageshadow="2"
     inkscape:window-width="1920"
     inkscape:window-height="996"
     id="namedview4"
     showgrid="false"
     inkscape:zoom="1.7661174"
     inkscape:cx="422.82402"
     inkscape:cy="454.41299"
     inkscape:window-x="955"
     inkscape:window-y="2187"
     inkscape:window-maximized="1"
     inkscape:current-layer="g14" /><g
     id="g10"
     inkscape:groupmode="layer"
     inkscape:label="rocketLOGOv2-Recovered"
     transform="matrix(1.3333333,0,0,-1.3333333,0,755.90533)"><g
       id="g12"><g
         id="g14"
         clip-path="url(#clipPath18)"><g
           id="g20"
           transform="translate(394.2148,440.6565)"><path
             d="m 0,0 c 59.22,-73.893 50.565,-179.969 -19.329,-236.927 -69.896,-56.959 -174.564,-43.231 -233.783,30.661 -59.219,73.893 -50.565,179.969 19.33,236.928 C -163.887,87.621 -59.219,73.893 0,0 Z"
             style="fill:none;stroke:#a2be3a;stroke-width:0.5;stroke-linecap:butt;stroke-linejoin:miter;stroke-miterlimit:10;stroke-dasharray:none;stroke-opacity:1"
             id="path22"
             inkscape:connector-curvature="0" /></g><g
           id="g24"
           transform="translate(394.2148,440.6565)"><path
             d="m 0,0 c 59.22,-73.893 50.565,-179.969 -19.329,-236.927 -69.896,-56.959 -174.564,-43.231 -233.783,30.661 -59.219,73.893 -50.565,179.969 19.33,236.928 C -163.887,87.621 -59.219,73.893 0,0 Z"
             style="fill:none;stroke:#a2be3a;stroke-width:0.5;stroke-linecap:butt;stroke-linejoin:miter;stroke-miterlimit:10;stroke-dasharray:none;stroke-opacity:1"
             id="path26"
             inkscape:connector-curvature="0" /></g><g
           id="g28"
           transform="translate(339.6689,481.4969)"><path
             d="m 0,0 c 88.874,-36.989 128.681,-131.434 88.91,-210.948 -39.77,-79.514 -144.056,-113.988 -232.93,-76.998 -88.874,36.989 -128.68,131.434 -88.91,210.948 C -193.16,2.516 -88.874,36.989 0,0 Z"
             style="fill:none;stroke:#a2be3a;stroke-width:0.5;stroke-linecap:butt;stroke-linejoin:miter;stroke-miterlimit:10;stroke-dasharray:none;stroke-opacity:1"
             id="path30"
             inkscape:connector-curvature="0" /></g><g
           id="g32"
           transform="translate(339.6689,481.4969)"><path
             d="m 0,0 c 88.874,-36.989 128.681,-131.434 88.91,-210.948 -39.77,-79.514 -144.056,-113.988 -232.93,-76.998 -88.874,36.989 -128.68,131.434 -88.91,210.948 C -193.16,2.516 -88.874,36.989 0,0 Z"
             style="fill:none;stroke:#a2be3a;stroke-width:0.5;stroke-linecap:butt;stroke-linejoin:miter;stroke-miterlimit:10;stroke-dasharray:none;stroke-opacity:1"
             id="path34"
             inkscape:connector-curvature="0" /></g><g
           id="g36"
           transform="translate(324.3662,472.0789)"><path
             d="m 0,0 c 91.578,-31.157 137.566,-122.381 102.717,-203.753 -34.85,-81.372 -137.339,-122.08 -228.918,-90.923 -91.578,31.157 -137.567,122.381 -102.717,203.753 C -194.069,-9.55 -91.579,31.157 0,0 Z"
             style="fill:none;stroke:#a2be3a;stroke-width:0.5;stroke-linecap:butt;stroke-linejoin:miter;stroke-miterlimit:10;stroke-dasharray:none;stroke-opacity:1"
             id="path38"
             inkscape:connector-curvature="0" /></g><g
           id="g40"
           transform="translate(406.9033,418.5979)"><path
             d="M 0,0 C 16.109,-14.508 19.804,-37.652 10.399,-56.089 L 33.99,-29.895 C 50.719,-11.319 49.222,17.3 30.646,34.029 12.071,50.758 -16.549,49.261 -33.277,30.686 L -56.867,4.492 C -39.513,15.767 -16.109,14.508 0,0"
             style="fill:#139bd7;fill-opacity:1;fill-rule:nonzero;stroke:none"
             id="path42"
             inkscape:connector-curvature="0" /></g><g
           id="g44"
           transform="translate(395.1885,369.5945)"><path
             d="m 0,0 c -11.919,-13.235 -39.481,-7.844 -39.481,-7.844 0,0 -8.238,26.849 3.682,40.084 C -23.88,45.475 -6.204,48.987 3.682,40.084 13.567,31.181 11.919,13.235 0,0"
             style="fill:#a2be3a;fill-opacity:1;fill-rule:nonzero;stroke:none"
             id="path46"
             inkscape:connector-curvature="0" /></g><g
           id="g48"
           transform="translate(396.833,455.2845)"><path
             d="m 0,0 c -13.471,-14.958 -23.314,-30.717 -28.522,-44.376 l 34.299,-30.89 c 13.041,6.605 27.688,18.038 41.159,32.996 9.258,10.281 15.398,22.196 19.487,33.57 L 31.354,22.883 C 20.469,17.629 9.259,10.28 0,0"
             style="fill:#2b327b;fill-opacity:1;fill-rule:nonzero;stroke:none"
             id="path50"
             inkscape:connector-curvature="0" /></g><g
           id="g52"
           transform="translate(467.752,486.5799)"><path
             d="M 0,0 C 0,0 -19.495,-0.174 -39.595,-8.386 L -4.209,-40.253 C 1.86,-19.407 0,0 0,0"
             style="fill:#139bd7;fill-opacity:1;fill-rule:nonzero;stroke:none"
             id="path54"
             inkscape:connector-curvature="0" /></g><g
           id="g56"
           transform="translate(432.4775,429.4832)"><path
             d="m 0,0 c -4.331,-4.81 -11.741,-5.197 -16.551,-0.866 -4.809,4.332 -5.197,11.742 -0.866,16.552 4.332,4.809 11.742,5.197 16.552,0.865 C 3.944,12.22 4.332,4.81 0,0"
             style="fill:#139bd7;fill-opacity:1;fill-rule:nonzero;stroke:none"
             id="path58"
             inkscape:connector-curvature="0" /></g><g
           id="g60"
           transform="translate(401.1543,377.052)"><path
             d="m 0,0 -34.97,31.494 2.126,2.362 L 2.127,2.362 Z"
             style="fill:#139bd7;fill-opacity:1;fill-rule:nonzero;stroke:none"
             id="path62"
             inkscape:connector-curvature="0" /></g></g></g><text
       transform="scale(1,-1)"
       style="font-variant:normal;font-weight:normal;font-stretch:normal;font-size:36px;font-family:'Century Gothic';-inkscape-font-specification:CenturyGothic;writing-mode:lr-tb;fill:#a2be3a;fill-opacity:1;fill-rule:nonzero;stroke:none"
       id="text66"
       x="168.8779"
       y="-367.66409"><tspan
         sodipodi:role="line"
         id="tspan64"
         x="168.8779"
         y="-367.66409">SZCZECIN</tspan></text>
<text
       transform="scale(1,-1)"
       style="font-variant:normal;font-weight:normal;font-stretch:normal;font-size:50px;font-family:'Century Gothic';-inkscape-font-specification:CenturyGothic;writing-mode:lr-tb;fill:#2b327b;fill-opacity:1;fill-rule:nonzero;stroke:none"
       id="text70"
       x="118"
       y="-307.66409"><tspan
         sodipodi:role="line"
         id="tspan68"
         x="118"
         y="-307.66409">SPACEAPPS</tspan></text>
<text
       transform="scale(1,-1)"
       style="font-variant:normal;font-weight:normal;font-stretch:normal;font-size:36px;font-family:'Century Gothic';-inkscape-font-specification:CenturyGothic;writing-mode:lr-tb;fill:#2b327b;fill-opacity:1;fill-rule:nonzero;stroke:none"
       id="text74"
       x="152.17822"
       y="-264.4639"><tspan
         sodipodi:role="line"
         id="tspan72"
         x="152.17822"
         y="-264.4639">CHALLENGE</tspan></text>
</g></svg>