<?xml version="1.0" encoding="iso-8859-1"?>
<!-- Generator: Adobe Illustrator 19.0.0, SVG Export Plug-In . SVG Version: 6.00 Build 0)  -->
<svg version="1.1" id="Layer_1" xmlns="http://www.w3.org/2000/svg" xmlns:xlink="http://www.w3.org/1999/xlink" x="0px" y="0px"
	 viewBox="0 0 512 512" style="enable-background:new 0 0 512 512;" xml:space="preserve">
<g>
	<g>
		<g>
			<path d="M460.8,68.267c0-9.412-7.654-17.067-17.067-17.067c-9.404,0-17.067,7.654-17.067,17.067
				c0,9.412,7.663,17.067,17.067,17.067C453.146,85.333,460.8,77.679,460.8,68.267z"/>
			<path d="M435.2,153.6c-4.71,0-8.533,3.823-8.533,8.533v307.2c0,14.123-11.477,25.6-25.6,25.6H110.933
				c-14.114,0-25.6-11.477-25.6-25.6V170.667h315.733c4.719,0,8.533-3.814,8.533-8.533c0-4.71-3.814-8.533-8.533-8.533H76.8
				c-4.71,0-8.533,3.823-8.533,8.533v307.2c0,23.526,19.149,42.667,42.667,42.667h290.133c23.526,0,42.667-19.14,42.667-42.667
				v-307.2C443.733,157.423,439.919,153.6,435.2,153.6z"/>
			<path d="M384,76.8c4.719,0,8.533-3.814,8.533-8.533c0-4.71-3.814-8.533-8.533-8.533h-85.333c-4.71,0-8.533,3.823-8.533,8.533
				c0,4.719,3.823,8.533,8.533,8.533H384z"/>
			<path d="M460.8,196.267c0,4.719,3.823,8.533,8.533,8.533c4.719,0,8.533-3.814,8.533-8.533V128c0-4.71-3.814-8.533-8.533-8.533
				H42.667c-4.71,0-8.533,3.823-8.533,8.533v68.267c0,4.719,3.823,8.533,8.533,8.533c4.719,0,8.533-3.814,8.533-8.533v-59.733h409.6
				V196.267z"/>
			<path d="M167.996,188.058c-4.548-1.271-9.259,1.348-10.53,5.888c-2.56,9.045-3.866,18.441-3.866,27.921
				c0,56.465,45.935,102.4,102.4,102.4c56.474,0,102.4-45.935,102.4-102.4c0-9.472-1.297-18.867-3.857-27.913
				c-1.271-4.531-6.042-7.134-10.53-5.888c-4.531,1.28-7.168,5.999-5.888,10.53c2.133,7.543,3.209,15.369,3.209,23.27
				c0,47.061-38.281,85.333-85.333,85.333c-47.044,0-85.333-38.272-85.333-85.333c0-7.91,1.084-15.735,3.208-23.279
				C175.164,194.057,172.527,189.338,167.996,188.058z"/>
			<path d="M469.333,0H42.667C19.149,0,0,19.149,0,42.667V230.4c0,23.526,19.149,42.667,42.667,42.667
				c4.719,0,8.533-3.814,8.533-8.533c0-4.71-3.814-8.533-8.533-8.533c-14.114,0-25.6-11.477-25.6-25.6V42.667
				c0-14.114,11.486-25.6,25.6-25.6h426.667c14.123,0,25.6,11.486,25.6,25.6V230.4c0,14.123-11.477,25.6-25.6,25.6
				c-4.71,0-8.533,3.823-8.533,8.533c0,4.719,3.823,8.533,8.533,8.533c23.526,0,42.667-19.14,42.667-42.667V42.667
				C512,19.149,492.86,0,469.333,0z"/>
			<path d="M110.933,187.733c-4.71,0-8.533,3.823-8.533,8.533v221.867c0,4.719,3.823,8.533,8.533,8.533
				c23.526,0,42.667,19.149,42.667,42.667c0,4.719,3.823,8.533,8.533,8.533h187.733c4.719,0,8.533-3.814,8.533-8.533
				c0-23.518,19.149-42.667,42.667-42.667c4.719,0,8.533-3.814,8.533-8.533V196.267c0-4.71-3.814-8.533-8.533-8.533
				c-4.71,0-8.533,3.823-8.533,8.533v213.948c-26.121,3.755-46.839,24.465-50.586,50.586H170.061
				c-3.746-26.121-24.465-46.831-50.594-50.586V196.267C119.467,191.556,115.652,187.733,110.933,187.733z"/>
			<path d="M230.4,204.8c4.719,0,8.533-3.814,8.533-8.533c0-4.71-3.814-8.533-8.533-8.533c-15.855,0-29.107,10.923-32.922,25.6
				h-1.212c-4.71,0-8.533,3.823-8.533,8.533c0,4.719,3.823,8.533,8.533,8.533h1.212c3.814,14.686,17.067,25.6,32.922,25.6
				c18.833,0,34.133-15.309,34.133-34.133c0-9.412,7.663-17.067,17.067-17.067c9.412,0,17.067,7.654,17.067,17.067
				c0,9.412-7.654,17.067-17.067,17.067c-4.71,0-8.533,3.823-8.533,8.533c0,4.719,3.823,8.533,8.533,8.533
				c15.863,0,29.116-10.914,32.93-25.6h1.203c4.719,0,8.533-3.814,8.533-8.533c0-4.71-3.814-8.533-8.533-8.533h-1.203
				c-3.814-14.677-17.067-25.6-32.93-25.6c-18.825,0-34.133,15.317-34.133,34.133c0,9.412-7.654,17.067-17.067,17.067
				c-9.404,0-17.067-7.654-17.067-17.067C213.333,212.454,220.996,204.8,230.4,204.8z"/>
		</g>
	</g>
</g>
<g>
</g>
<g>
</g>
<g>
</g>
<g>
</g>
<g>
</g>
<g>
</g>
<g>
</g>
<g>
</g>
<g>
</g>
<g>
</g>
<g>
</g>
<g>
</g>
<g>
</g>
<g>
</g>
<g>
</g>
</svg>
