<?xml version="1.0" encoding="iso-8859-1"?>
<!-- Generator: Adobe Illustrator 19.0.0, SVG Export Plug-In . SVG Version: 6.00 Build 0)  -->
<svg version="1.1" id="Capa_1" xmlns="http://www.w3.org/2000/svg" xmlns:xlink="http://www.w3.org/1999/xlink" x="0px" y="0px"
	 viewBox="0 0 512.001 512.001" style="enable-background:new 0 0 512.001 512.001;" xml:space="preserve">
<g>
	<g>
		<path d="M506.479,125.563l-23.653-11.827L470.99,90.073c-1.692-3.383-5.151-5.521-8.934-5.52c-3.784,0-7.243,2.139-8.934,5.523
			l-11.826,23.661l-23.661,11.824c-3.385,1.691-5.523,5.151-5.523,8.935c0,3.784,2.138,7.243,5.523,8.935l23.661,11.826
			l11.826,23.661c1.691,3.384,5.15,5.523,8.934,5.523c0,0,0,0,0.001,0c3.783,0,7.242-2.138,8.933-5.52l11.837-23.663l23.653-11.827
			c3.385-1.692,5.522-5.151,5.522-8.934S509.863,127.255,506.479,125.563z M470.916,138.878c-1.934,0.966-3.5,2.533-4.467,4.466
			l-4.389,8.773l-4.383-8.77c-0.967-1.935-2.535-3.502-4.47-4.469l-8.763-4.38l8.763-4.382c1.935-0.967,3.503-2.535,4.47-4.469
			l4.383-8.77l4.389,8.773c0.967,1.933,2.533,3.499,4.467,4.466l8.761,4.381L470.916,138.878z"/>
	</g>
</g>
<g>
	<g>
		<path d="M159.484,85.993l-40.212-13.404l-13.403-40.211c-1.359-4.078-5.177-6.83-9.476-6.83c-4.299,0-8.117,2.751-9.476,6.83
			L73.513,72.589L33.301,85.993c-4.079,1.359-6.83,5.177-6.83,9.476c0,4.299,2.751,8.117,6.83,9.477l40.212,13.404l13.403,40.211
			c1.359,4.078,5.177,6.83,9.476,6.83c4.299,0,8.117-2.751,9.476-6.83l13.403-40.211l40.212-13.404
			c4.079-1.359,6.83-5.177,6.83-9.476C166.315,91.17,163.564,87.353,159.484,85.993z M108.218,100.976
			c-2.983,0.994-5.323,3.334-6.318,6.318l-5.507,16.522l-5.507-16.522c-0.995-2.983-3.335-5.324-6.318-6.318l-16.521-5.507
			l16.521-5.507c2.983-0.994,5.323-3.334,6.318-6.318l5.507-16.522l5.507,16.522c0.995,2.983,3.335,5.324,6.318,6.318l16.521,5.507
			L108.218,100.976z"/>
	</g>
</g>
<g>
	<g>
		<path d="M49.944,186.078h-9.989v-9.989c0-5.517-4.473-9.989-9.989-9.989c-5.516,0-9.989,4.472-9.989,9.989v9.989H9.989
			c-5.516,0-9.989,4.472-9.989,9.989s4.473,9.989,9.989,9.989h9.989v9.989c0,5.517,4.473,9.989,9.989,9.989
			c5.516,0,9.989-4.472,9.989-9.989v-9.989h9.989c5.516,0,9.989-4.472,9.989-9.989S55.46,186.078,49.944,186.078z"/>
	</g>
</g>
<g>
	<g>
		<path d="M295.671,130.484v-27.314c0-18.583-12.753-34.244-29.967-38.691V20.263h89.9c5.516,0,9.989-4.472,9.989-9.989
			s-4.473-9.989-9.989-9.989H155.827c-5.516,0-9.989,4.472-9.989,9.989s4.473,9.989,9.989,9.989h89.9V64.48
			c-17.214,4.447-29.967,20.108-29.967,38.691v27.314C129.86,149.351,62.93,227.348,62.93,318.93
			c0,104.728,87.698,192.785,192.785,192.785c104.569,0,192.785-87.748,192.785-192.785
			C448.501,227.398,381.619,149.363,295.671,130.484z M400.559,226.034L400.559,226.034c16.451,25.178,25.912,53.557,27.664,82.908
			H358.44c-0.203-7.055-0.601-14.103-1.227-21.051c-0.019-0.331-0.051-0.626-0.085-0.887c-1.194-13.125-3.166-26.134-5.859-38.656
			c-1.628-7.614-3.534-15.076-5.693-22.314H400.559z M385.398,206.056h-46.661c-8.04-20.687-17.98-37.91-29.195-50.992
			C338.513,164.927,364.857,182.606,385.398,206.056z M317.153,206.056h-51.449v-58.454
			C284.807,153.163,303.438,174.277,317.153,206.056z M235.738,103.171c0-11.016,8.962-19.978,19.978-19.978
			s19.978,8.962,19.978,19.978v24.053c-6.407-0.686-12.854-1.036-19.302-1.059c-0.226-0.003-0.449-0.02-0.676-0.02
			c-0.226,0-0.451,0.017-0.676,0.02c-6.448,0.023-12.894,0.373-19.302,1.059V103.171z M245.726,147.602v58.454h-51.449
			C207.992,174.277,226.624,153.163,245.726,147.602z M201.889,155.064c-11.214,13.083-21.154,30.305-29.194,50.993h-46.661
			C146.574,182.606,172.917,164.927,201.889,155.064z M110.872,226.034h54.982c-2.188,7.34-4.122,14.934-5.778,22.709
			c-0.064,0.257-0.118,0.515-0.162,0.774c-4.04,19.17-6.356,39.114-6.93,59.425H83.207
			C84.959,279.592,94.42,251.214,110.872,226.034z M108.95,408.83c-15.258-24.433-24.054-51.76-25.739-79.911h69.78
			c0.19,6.643,0.55,13.254,1.115,19.739c1.803,21.112,5.453,41.291,10.872,60.172H108.95z M123.434,428.808h48.124
			c8.236,22.072,18.578,40.327,30.322,54.036C171.735,472.665,144.505,454.075,123.434,428.808z M245.726,490.279
			c-19.768-5.702-38.896-27.939-52.718-61.471h52.718V490.279z M255.715,348.897c-5.516,0-9.989,4.472-9.989,9.989v49.944h-59.894
			c-5.975-19.194-9.952-39.969-11.823-61.887c-0.515-5.925-0.848-11.96-1.032-18.024h42.782c5.516,0,9.989-4.472,9.989-9.989
			c0-5.517-4.473-9.989-9.989-9.989h-42.786c0.571-19.053,2.764-37.743,6.569-55.683c0.015-0.068,0.028-0.137,0.041-0.206
			c1.987-9.354,4.403-18.406,7.196-27.02h58.947v49.944c0,5.517,4.473,9.989,9.989,9.989s9.989-4.472,9.989-9.989v-49.944h58.945
			c2.751,8.487,5.13,17.366,7.084,26.503c2.544,11.827,4.401,24.116,5.52,36.524c0.009,0.097,0.021,0.201,0.033,0.306
			c0.003,0.03,0.005,0.06,0.008,0.089c0.583,6.429,0.957,12.952,1.157,19.484h-42.78c-5.516,0-9.989,4.472-9.989,9.989
			c0,5.517,4.473,9.889,9.989,9.889h42.783c-0.49,16.301-2.165,32.482-5.03,48.028c-2.045,11.121-4.678,21.839-7.83,31.983h-59.889
			v-49.944C265.704,353.369,261.231,348.897,255.715,348.897z M265.704,490.279v-61.57h52.719
			C304.602,462.238,285.473,484.577,265.704,490.279z M309.522,482.879c11.757-13.714,22.109-32.079,30.351-54.171h48.118
			C366.914,454.01,339.698,472.711,309.522,482.879z M402.473,408.83H346.44c2.609-9.116,4.836-18.604,6.631-28.365
			c3.085-16.728,4.874-34.126,5.371-51.646h69.777C426.531,356.959,417.73,384.409,402.473,408.83z"/>
	</g>
</g>
<g>
	<g>
		<path d="M255.715,308.942c-5.514,0-9.989,4.475-9.989,9.989s4.475,9.989,9.989,9.989s9.989-4.475,9.989-9.989
			S261.229,308.942,255.715,308.942z"/>
	</g>
</g>
<g>
</g>
<g>
</g>
<g>
</g>
<g>
</g>
<g>
</g>
<g>
</g>
<g>
</g>
<g>
</g>
<g>
</g>
<g>
</g>
<g>
</g>
<g>
</g>
<g>
</g>
<g>
</g>
<g>
</g>
</svg>
