<?xml version="1.0" encoding="iso-8859-1"?>
<!-- Generator: Adobe Illustrator 19.0.0, SVG Export Plug-In . SVG Version: 6.00 Build 0)  -->
<svg version="1.1" id="Capa_1" xmlns="http://www.w3.org/2000/svg" xmlns:xlink="http://www.w3.org/1999/xlink" x="0px" y="0px"
	 viewBox="0 0 463 463" style="enable-background:new 0 0 463 463;" xml:space="preserve">
<g>
	<path d="M399.5,0h-336C59.358,0,56,3.358,56,7.5v448c0,4.142,3.358,7.5,7.5,7.5h336c4.142,0,7.5-3.358,7.5-7.5V7.5
		C407,3.358,403.642,0,399.5,0z M71,25.606l17,17v377.787l-17,17V25.606z M103,416V47h257v369H103z M364.394,32H98.606l-17-17
		h299.787L364.394,32z M98.606,431h265.787l17,17H81.606L98.606,431z M375,420.394V42.606l17-17v411.787L375,420.394z"/>
	<path d="M335.5,64h-208c-4.142,0-7.5,3.358-7.5,7.5v320c0,4.142,3.358,7.5,7.5,7.5h208c4.142,0,7.5-3.358,7.5-7.5v-320
		C343,67.358,339.642,64,335.5,64z M210.37,232.571c-2.801-1.16-6.028-0.52-8.173,1.626l-3.579,3.579
		c-8.336,8.336-21.9,8.337-30.252-0.016c-5.28-5.28-7.435-13.06-5.624-20.304L191.5,102.422l10.71,42.841
		c-0.879-0.167-1.783-0.263-2.71-0.263c-7.995,0-14.5,6.505-14.5,14.5s6.505,14.5,14.5,14.5c3.44,0,6.601-1.21,9.09-3.219
		L231.894,264H215v-24.5C215,236.466,213.173,233.732,210.37,232.571z M200,159.5c0,0.276-0.224,0.5-0.5,0.5s-0.5-0.224-0.5-0.5
		s0.224-0.5,0.5-0.5S200,159.224,200,159.5z M207.5,358.25c15.606,0,28.674,11.059,31.79,25.75H175.71
		C178.826,369.309,191.894,358.25,207.5,358.25z M215,343.848v-23.199l32.691,6.538L261.894,384h-7.382
		C251.575,363.452,235.445,347.105,215,343.848z M224.35,307.221l15.186-12.655l4.13,16.518L224.35,307.221z M275.263,375.63
		l-22.932-91.727l7.97-6.642c2.426-2.021,3.326-5.346,2.251-8.315c-1.075-2.969-3.895-4.947-7.052-4.947h-8.144l-17.659-70.636
		c10.956,8.412,25.722,13.386,41.303,13.386c17.7,0,34.349-6.418,45.553-17.005C324.055,209.327,328,230.27,328,251.5
		C328,298.567,308.906,343.178,275.263,375.63z M309.392,175.5c-2.216,2.746-4.934,5.198-8.018,7.327
		c0.567-2.352,0.876-4.804,0.876-7.327s-0.309-4.975-0.876-7.327C304.458,170.302,307.175,172.754,309.392,175.5z M287.25,175.5
		c0,8.96-7.29,16.25-16.25,16.25s-16.25-7.29-16.25-16.25s7.29-16.25,16.25-16.25S287.25,166.54,287.25,175.5z M240.626,182.827
		c-3.084-2.13-5.801-4.581-8.018-7.327c2.216-2.746,4.934-5.198,8.018-7.327c-0.567,2.352-0.876,4.804-0.876,7.327
		S240.059,180.475,240.626,182.827z M271,144.25c-19.359,0-37.466,7.672-48.561,20.085l-19.693-78.77
		c33.366,9.511,63.468,29.114,85.783,56.112c1.651,1.998,3.252,4.031,4.806,6.096C286.34,145.49,278.772,144.25,271,144.25z M135,79
		h46.894L148.19,213.818c-3.082,12.326,0.585,25.563,9.585,34.564c11.407,11.406,28.564,13.64,42.225,6.702V271.5
		c0,4.142,3.358,7.5,7.5,7.5h27.285l-32.086,26.738c-1.71,1.425-2.699,3.536-2.699,5.762v32.348
		c-20.445,3.258-36.575,19.604-39.512,40.152H135V79z M328,384h-39.84c17.076-17.088,30.53-37.123,39.84-58.963V384z
		 M300.092,132.121C280.893,108.893,256.383,90.704,229.006,79H328v99.069C320.99,161.582,311.625,146.075,300.092,132.121z"/>
</g>
<g>
</g>
<g>
</g>
<g>
</g>
<g>
</g>
<g>
</g>
<g>
</g>
<g>
</g>
<g>
</g>
<g>
</g>
<g>
</g>
<g>
</g>
<g>
</g>
<g>
</g>
<g>
</g>
<g>
</g>
</svg>
