<?xml version="1.0" encoding="iso-8859-1"?>
<!-- Generator: Adobe Illustrator 19.0.0, SVG Export Plug-In . SVG Version: 6.00 Build 0)  -->
<svg version="1.1" id="Capa_1" xmlns="http://www.w3.org/2000/svg" xmlns:xlink="http://www.w3.org/1999/xlink" x="0px" y="0px"
	 viewBox="0 0 512.061 512.061" style="enable-background:new 0 0 512.061 512.061;" xml:space="preserve">
<g>
	<g>
		<g>
			<rect x="42.667" y="85.364" width="21.333" height="21.333"/>
			<rect x="96" y="53.364" width="21.333" height="21.333"/>
			<rect x="256" y="96.03" width="21.333" height="21.333"/>
			<path d="M510.933,219.262L489.6,176.596c-1.816-3.634-5.538-5.921-9.6-5.899h-60.693l24.896-91.136
				c1.047-3.906,4.224-6.877,8.192-7.659l40.405-8.085l-4.267-20.907l-40.363,8.075c-11.904,2.339-21.443,11.241-24.597,22.955
				l-26.389,96.757h-55.869c0.003-0.1,0.018-0.199,0.019-0.299V160.03c0.001-1.191-0.197-2.373-0.587-3.499
				c-2.818-7.267-7.388-13.49-13.11-18.277c8.693-8.887,13.787-20.993,13.696-33.904c-0.098-2.757-0.47-5.498-1.111-8.182
				c-5.334-22.347-27.774-36.139-50.122-30.805c-5.5-7.28-12.821-12.983-21.227-16.533c0.107-1.124,0.16-2.244,0.16-3.36
				c-0.455-22.544-19.054-40.476-41.6-40.107c-15.635-0.068-30.001,8.594-37.237,22.453c-3.84-1.707-7.872-3.296-11.371-4.469
				C175.54,9.71,163.362,0.082,149.333,0.03c-13.218,0.434-25.677,6.277-34.464,16.16C109.229,12.605,102.684,10.7,96,10.697
				c-0.015,0-0.03,0-0.045,0C71.637,10.532,51.791,30.113,51.627,54.43C23.637,54.09,0.601,76.365,0,104.35
				c0.106,12.832,5.155,24.884,13.734,33.88c-5.741,4.795-10.326,11.035-13.147,18.323C0.2,157.671,0.001,158.847,0,160.03v10.368
				c0.002,0.456,0.03,0.912,0.085,1.365l40.043,311.829c1.818,16.224,15.557,28.479,31.883,28.437h194.656h2.656h168.011
				c5.415-0.002,9.969-4.061,10.592-9.44l30.911-267.893h22.497c1.675,0.009,3.328-0.376,4.827-1.125
				C511.43,230.939,513.567,224.532,510.933,219.262z M21.333,104.35c0.602-16.333,14.289-29.109,30.624-28.587
				c3.346,0.047,6.664,0.616,9.835,1.685c2.561,0.812,5.333,0.627,7.764-0.516c5.331-2.508,7.619-8.862,5.11-14.193
				c-1.118-2.331-1.705-4.881-1.717-7.467c-0.001-0.079-0.001-0.157-0.001-0.236C72.961,42.319,83.281,32.018,96,32.03
				c5.402,0.418,10.377,3.099,13.696,7.381c1.07,1.098,2.363,1.953,3.793,2.506c5.494,2.125,11.671-0.606,13.796-6.1
				c4.287-8.368,12.665-13.859,22.048-14.453c5.088,0,6.496,1.141,11.371,14.272c1.266,3.458,4.225,6.018,7.829,6.773
				c7.358,2.244,14.447,5.288,21.141,9.077c1.743,1.522,3.935,2.436,6.243,2.603c5.876,0.426,10.984-3.991,11.41-9.867
				c1.301-9.497,9.06-16.795,18.62-17.513c11.197-0.841,20.955,7.554,21.796,18.751c-0.024,2.257-0.484,4.488-1.355,6.571
				c-0.267,0.654-0.468,1.332-0.601,2.026c-1.107,5.786,2.687,11.374,8.473,12.481c9.416,1.722,17.464,7.793,21.707,16.373
				c0.014,0.029,0.028,0.058,0.042,0.086c2.604,5.284,8.999,7.457,14.283,4.852c2.503-1.326,5.256-2.113,8.082-2.31
				c11.166-0.777,20.848,7.645,21.625,18.811c-0.034,9.866-5.284,18.979-13.803,23.957l0.019,0.062
				c-2.467-0.417-4.99-0.64-7.55-0.638c-12.277,0.017-23.947,5.346-32,14.613c-1.318-1.521-2.744-2.946-4.265-4.265
				c-17.673-15.318-44.417-13.408-59.735,4.265c-1.318-1.521-2.744-2.946-4.265-4.265c-17.673-15.318-44.417-13.408-59.735,4.265
				c-1.318-1.521-2.744-2.946-4.265-4.265c-17.673-15.318-44.417-13.408-59.735,4.265c-8.053-9.267-19.723-14.596-32-14.613
				c-2.513-0.001-4.989,0.214-7.412,0.616C26.801,123.335,21.49,114.268,21.333,104.35z M170.667,256.03
				c35.332,0.035,63.965,28.668,64,64c0,35.346-28.654,64-64,64c-35.346,0-64-28.654-64-64S135.32,256.03,170.667,256.03z
				 M192,237.386c-6.819-1.755-13.967-2.689-21.333-2.689c-7.366,0-14.515,0.934-21.333,2.689V166.04
				c0.527-0.772,0.965-1.618,1.28-2.533c2.105-6.305,7.053-11.254,13.359-13.359c11.075-3.697,23.051,2.283,26.748,13.359
				c0.315,0.914,0.753,1.76,1.28,2.533V237.386z M128,246.142c-15.229,8.813-27.474,22.188-34.873,38.267l-7.432-118.935
				c0.365-0.616,0.679-1.27,0.919-1.966c2.105-6.305,7.053-11.254,13.359-13.359c11.075-3.697,23.051,2.283,26.748,13.359
				c0.315,0.914,0.753,1.76,1.28,2.533V246.142z M98.165,365.024c7.684,12.355,18.431,22.6,31.188,29.673H128v96.053h-21.978
				L98.165,365.024z M149.333,402.675c6.819,1.755,13.967,2.689,21.333,2.689c7.367-0.008,14.515-0.949,21.333-2.711v88.097h-42.667
				V402.675z M211.911,394.697c12.791-7.088,23.565-17.36,31.263-29.749l-7.877,125.802h-21.964v-96.053H211.911z M248.215,284.429
				c-7.398-16.088-19.647-29.471-34.882-38.287V166.04c0.527-0.772,0.965-1.618,1.28-2.533c2.105-6.305,7.053-11.254,13.359-13.359
				c11.075-3.697,23.051,2.283,26.748,13.359c0.245,0.71,0.566,1.377,0.941,2.003L248.215,284.429z M71.979,490.75
				c-5.502-0.015-10.105-4.18-10.667-9.653L21.333,169.716v-7.669c4.177-7.926,12.374-12.914,21.333-12.981
				c9.076,0.058,17.122,5.853,20.053,14.443c0.39,1.131,0.961,2.161,1.669,3.07L84.647,490.75H71.979z M256.672,490.75
				l20.299-324.206c0.695-0.901,1.257-1.92,1.642-3.037c2.931-8.59,10.977-14.385,20.053-14.443
				c8.959,0.067,17.156,5.055,21.333,12.981v7.669l-40.021,311.531c-0.555,5.064-4.596,8.97-9.568,9.451h-3.745v0.053H256.672z
				 M436.023,419.612c-15.775,3.725-32.497,1.367-46.716-6.847c-30.607-17.68-41.085-56.824-23.405-87.431
				c17.011-29.449,53.89-40.25,83.919-25.278L436.023,419.612z M452.38,277.892c-9.863-3.854-20.39-5.862-31.054-5.861
				c-47.128,0.002-85.332,38.209-85.33,85.337c0.002,47.128,38.209,85.332,85.337,85.33c4.066-0.001,8.118-0.303,12.127-0.88
				l-5.642,48.88H299.57c0.779-2.208,1.331-4.53,1.614-6.944l31.982-249.056h124.199L452.38,277.892z M469.333,213.364H335.906
				l2.74-21.333h134.763l10.667,21.333H469.333z"/>
			<rect x="394.667" y="458.697" width="21.333" height="21.333"/>
			<rect x="330.667" y="458.697" width="42.667" height="21.333"/>
		</g>
	</g>
</g>
<g>
</g>
<g>
</g>
<g>
</g>
<g>
</g>
<g>
</g>
<g>
</g>
<g>
</g>
<g>
</g>
<g>
</g>
<g>
</g>
<g>
</g>
<g>
</g>
<g>
</g>
<g>
</g>
<g>
</g>
</svg>
